<?xml version="1.0" encoding="utf-8"?>
<!-- Generator: Adobe Illustrator 23.0.3, SVG Export Plug-In . SVG Version: 6.00 Build 0)  -->
<svg version="1.1" id="Layer_1" xmlns="http://www.w3.org/2000/svg" xmlns:xlink="http://www.w3.org/1999/xlink" x="0px" y="0px"
	 viewBox="0 0 197.5 37" style="enable-background:new 0 0 197.5 37;" xml:space="preserve">
<style type="text/css">
	.st0{fill:#CE0E2D;}
	.st1{fill:#FFFFFF;}
</style>
<rect y="0" width="37.3" height="37"/>
<rect x="1.5" y="1.6" class="st0" width="34.3" height="33.9"/>
<polygon points="28.9,31.9 28.9,23.1 28.9,23 31.4,23 31.4,31.9 "/>
<polygon points="6,31.9 6,23.1 6,23 8.5,23 8.5,31.9 "/>
<path d="M25.9,31.9v-3.7H21c-0.3,1.1-1.3,1.8-2.5,1.8s-2.2-0.8-2.5-1.8h-4.4v3.7H9V23h2.5v3.9h4.4c0.2-1.2,1.3-2.1,2.6-2.1
	c1.3,0,2.3,0.9,2.6,2.1h4.8v-3.8V23h2.5v8.9H25.9z"/>
<path d="M26.5,17.6l3.8-1l-1.7-6.4l-0.2,0.1l0,0c0.2-0.7-0.3-1.4-1-1.6L14.6,5.4c-0.7-0.2-1.4,0.3-1.6,1L10.9,15L7,16l1.7,6.4l3.6-1
	l12.5,3.1L26.5,17.6z"/>
<polygon class="st1" points="26.6,10.7 13.8,7.5 13,10.8 19.7,12.5 "/>
<rect x="8.7" y="14.2" transform="matrix(0.9659 -0.2588 0.2588 0.9659 -3.5593 5.3634)" class="st1" width="19.8" height="4"/>
<path d="M134,8.7l-11,20.4h7l1.8-3.6h12.7l1.9,3.6h7L142.2,8.7H134z M134.1,21.1l3.9-7.7l4.1,7.7H134.1z"/>
<polygon points="171.5,21.8 164.4,8.7 154.8,8.7 154.8,29.1 160.9,29.1 160.9,14.4 160.9,14.4 169.1,29.1 173.8,29.1 182,14.4 
	182.1,14.4 182.1,29.1 188.2,29.1 188.2,8.7 178.5,8.7 "/>
<path d="M111.4,16.4c-6.7,0-7.5,0-7.5-1.8c0-1.1,1-1.6,2.4-1.6h6.9c2.9,0,3,0.6,3,2.1h6.3v-0.6c0-3.6-0.7-6-7.9-6h-8.7
	c-7.9,0-8.2,2.8-8.2,6.5c0,5,1.1,6.1,10.5,6.1c8.1,0,8.8,0.1,8.8,1.9c0,1.6-1.4,1.7-2.7,1.7h-7.7c-1.8,0-2.7-0.2-2.7-2.3h-6.3v1.4
	c0,4.4,2.3,5.5,8,5.5h7.6c8.3,0,10.2-0.9,10.2-6.4C123.4,17,121.1,16.4,111.4,16.4"/>
<path d="M86.9,8.4h-10c-5.6,0-9,1.4-9,7.4v6.1c0,6,3.4,7.4,9,7.4h10c5.6,0,9-1.4,9-7.4v-6.1C95.9,9.8,92.5,8.4,86.9,8.4 M89.5,20
	c0,3-0.6,4.1-3.6,4.1h-8c-3,0-3.6-1.1-3.6-4.1v-2.2c0-2.5,0.6-4.1,3.9-4.1h7.3c3.3,0,3.9,1.6,3.9,4.1L89.5,20L89.5,20z"/>
<path d="M59.5,22.1c0,1.9-1.2,2.1-3.3,2.1h-2.5c-1.9,0-2.7-0.6-2.7-2.1v-1.8h-6v2.5c0,4.8,2.1,6.6,8,6.6h4.1c5.7,0,8.7-1.1,8.7-6.7
	v-14h-6.3C59.5,8.7,59.5,22.1,59.5,22.1z"/>
<path d="M194.3,8.7c-1.8,0-3.3,1.5-3.3,3.3s1.5,3.3,3.3,3.3s3.3-1.5,3.3-3.3C197.5,10.1,196.1,8.7,194.3,8.7 M194.3,14.4
	c-1.4,0-2.5-1.1-2.5-2.5s1.1-2.5,2.5-2.5s2.5,1.1,2.5,2.5C196.7,13.3,195.6,14.4,194.3,14.4"/>
<path d="M195.6,12.9c-0.2-0.3-0.3-0.4-0.4-0.6c-0.1-0.1-0.2-0.2-0.4-0.3c0.3,0,0.5-0.1,0.7-0.3c0.1-0.2,0.2-0.4,0.2-0.6
	c0-0.2-0.1-0.4-0.1-0.5c-0.1-0.2-0.2-0.3-0.4-0.3c-0.2-0.1-0.4-0.1-0.8-0.1H193v3.4h0.7v-1.4h0.1c0.2,0,0.3,0,0.3,0
	c0.1,0,0.1,0.1,0.2,0.1c0.1,0.1,0.2,0.2,0.4,0.5l0.5,0.7h0.8L195.6,12.9z M194.2,11.6h-0.5v-0.9h0.5c0.3,0,0.4,0,0.5,0
	s0.2,0.1,0.3,0.1c0.1,0.1,0.1,0.2,0.1,0.3s0,0.2-0.1,0.3c0,0.1-0.1,0.1-0.2,0.1C194.7,11.6,194.5,11.6,194.2,11.6"/>
</svg>
